{"title":"The Ghost Writer (2010) Ewan McGregor (Opt.NORDIC SUBTITLES)","uid":5736904,"size":733002464,"categoryP":"other","categoryS":"other","magnet":"?xt=urn:btih:2c06d35eb040fd9bb053f454d5f5e686546638a8&amp;dn=The+Ghost+Writer+%282010%29+Ewan+McGregor+%28Opt.NORDIC+SUBTITLES%29&amp;tr=udp%3A%2F%2Ftracker.openbittorrent.com%3A80&amp;tr=udp%3A%2F%2Fopen.demonii.com%3A1337&amp;tr=udp%3A%2F%2Ftracker.coppersurfer.tk%3A6969&amp;tr=udp%3A%2F%2Fexodus.desync.com%3A6969","seeders":0,"leechers":1,"uploader":"Kuthumi","files":7,"time":1280849230,"description":" &lt;a href=&quot;http://www.imdb.com/title/tt1139328/&quot; rel=&quot;nofollow&quot; target=&quot;_NEW&quot;&gt;http://www.imdb.com/title/tt1139328/&lt;/a&gt;\n\nOptional subtitles in separate idx/sub files (Work in Windows Media Player etc., see enclosed Note): \nDanish, Finnish, Norwegian, Swedish.\n\nA ghostwriter hired to complete the memoirs of a former British prime minister uncovers secrets that put his own life in jeopardy.\n\nBased on the novel by Robert Harris, where the main character resembles former British Prime Minister Tony Blair. Harris was a strong supporter of Blair until he broke with him over Britain's participation in the war in Iraq and Blair's subordination to U.S. foreign policy. Directed by Roman Polanski, who was banned from the U.S. because of an event that occurred 32 years ago. Therefore, the film was shot in Germany and its depiction of Martha's Vineyard in Massachusetts is recreated on the island of Sylt in the North Sea.\n\nMy ripping procedure now produces decent quality for such a long film compressed into just 700 MiB.\n\nScreenshots here: &lt;a href=&quot;\nhttp://bayimg.com/KaOgEAAcB&quot; rel=&quot;nofollow&quot; target=&quot;_NEW&quot;&gt;\nhttp://bayimg.com/KaOgEAAcB&lt;/a&gt; &lt;a href=&quot;\nhttp://bayimg.com/kAOGkAACB&quot; rel=&quot;nofollow&quot; target=&quot;_NEW&quot;&gt;\nhttp://bayimg.com/kAOGkAACB&lt;/a&gt;\n\nIf in doubt, have a look at the comments to my torrent, &lt;a href=&quot;\nhttp://thepiratebay.se/torrent/5039759/Gandhi_(1982)_Ben_Kingsley_(Optional_MULTISUBS)&quot; rel=&quot;nofollow&quot; target=&quot;_NEW&quot;&gt;\nhttp://thepiratebay.se/torrent/5039759/Gandhi_(1982)_Ben_Kingsley_(Optional_MULTISUBS)&lt;/a&gt;\n\nWidescreen DVDrip XviD 2-pass 720x288, great stereo sound AC3.\nRuns well in both my standalone DivX players.\n\nMediaInfo analysis:\nFormat/Info                      : Audio Video Interleave\nFile size                        : 695 MiB\nDuration                         : 2h 2mn\nOverall bit rate                 : 792 Kbps\n\nVideo\nID                               : 0\nFormat                           : MPEG-4 Visual\nFormat profile                   : Advanced Simple@L5\nFormat settings, BVOP            : Yes\nFormat settings, QPel            : No\nFormat settings, GMC             : No warppoints\nFormat settings, Matrix          : Default (H.263)\nMuxing mode                      : Packed bitstream\nCodec ID                         : XVID\nCodec ID/Hint                    : XviD\nDuration                         : 2h 2mn\nBit rate                         : 655 Kbps\nWidth                            : 704 pixels\nHeight                           : 288 pixels\nDisplay aspect ratio             : 2.40:1\nFrame rate                       : 25.000 fps\nColor space                      : YUV\nChroma subsampling               : 4:2:0\nBit depth                        : 8 bits\nScan type                        : Progressive\nBits/(Pixel*Frame)               : 0.129\nStream size                      : 575 MiB (83%)\nWriting library                  : XviD 1.2.1 (UTC 2008-12-04)\n\nAudio\nID                               : 1\nFormat                           : MPEG Audio\nFormat version                   : Version 1\nFormat profile                   : Layer 3\nMode                             : Joint stereo\nMode extension                   : MS Stereo\nCodec ID                         : 55\nCodec ID/Hint                    : MP3\nDuration                         : 2h 2mn\nBit rate mode                    : Constant\nBit rate                         : 128 Kbps\nChannel(s)                       : 2 channels\nSampling rate                    : 48.0 KHz\nStream size                      : 112 MiB (16%)\nAlignment                        : Aligned on interleaves\nInterleave, duration             : 40 ms (1.00 video frame)\nInterleave, preload duration     : 504 ms\nWriting library                  : LAME3.97\n\nSource: PAL retail (note that PAL/NTSC will give no problems for avi files).\nWith thanks to the uploader of the Nordic DVD.","torrent":{"xt":"urn:btih:2c06d35eb040fd9bb053f454d5f5e686546638a8","amp;dn":"The+Ghost+Writer+%282010%29+Ewan+McGregor+%28Opt.NORDIC+SUBTITLES%29","amp;tr":["udp%3A%2F%2Ftracker.openbittorrent.com%3A80","udp%3A%2F%2Fopen.demonii.com%3A1337","udp%3A%2F%2Ftracker.coppersurfer.tk%3A6969","udp%3A%2F%2Fexodus.desync.com%3A6969"],"infoHash":"2c06d35eb040fd9bb053f454d5f5e686546638a8","infoHashBuffer":{"type":"Buffer","data":[44,6,211,94,176,64,253,155,176,83,244,84,213,245,230,134,84,102,56,168]},"announce":[],"urlList":[]}}